<?xml version="1.0" encoding="utf-8"?>
<!-- Generator: Adobe Illustrator 16.0.0, SVG Export Plug-In . SVG Version: 6.00 Build 0)  -->
<!DOCTYPE svg PUBLIC "-//W3C//DTD SVG 1.1//EN" "http://www.w3.org/Graphics/SVG/1.1/DTD/svg11.dtd">
<svg version="1.1" id="Layer_1" xmlns="http://www.w3.org/2000/svg" xmlns:xlink="http://www.w3.org/1999/xlink" x="0px" y="0px"
	 width="50px" height="50px" viewBox="0 0 50 50" enable-background="new 0 0 50 50" xml:space="preserve">
<g>
	<path style="opacity:1;fill:#ffffff;fill-opacity:1" d="M31.646,29.053c-2.771-1.717-4.725-4.463-5.476-7.607H14.648v-6.529c0-3.699,3.003-6.711,6.697-6.711
		c2.792,0,5.186,1.724,6.188,4.161c0.98-1.663,2.35-3.105,4.054-4.178l0.971-0.61C30.161,3.923,26.033,1.5,21.346,1.5
		c-7.395,0-13.409,6.018-13.409,13.416v6.529H7.26c-2.771,0-5.032,2.265-5.032,5.034v16.991c0,2.763,2.261,5.029,5.032,5.029h25.669
		c-0.796-1.077-1.282-2.394-1.282-3.831V29.053z"/>
	<path style="opacity:1;fill:#ffffff;fill-opacity:1" d="M43.241,10.427v8.12c0,0-2.345,2.953-5.122,2.953c-2.778,0-5.122-2.953-5.122-2.953v-8.12
		c-2.719,1.709-4.531,4.725-4.531,8.171c0,3.97,2.399,7.378,5.825,8.858v17.213c0,2.116,1.713,3.831,3.829,3.831
		c2.115,0,3.829-1.715,3.829-3.831V27.456c3.425-1.481,5.823-4.889,5.823-8.858C47.772,15.149,45.96,12.133,43.241,10.427z"/>
</g>
</svg>
