<?xml version="1.0" encoding="iso-8859-1"?>
<!-- Generator: Adobe Illustrator 16.0.0, SVG Export Plug-In . SVG Version: 6.00 Build 0)  -->
<!DOCTYPE svg PUBLIC "-//W3C//DTD SVG 1.1//EN" "http://www.w3.org/Graphics/SVG/1.1/DTD/svg11.dtd">
<svg version="1.1" id="Layer_1" xmlns="http://www.w3.org/2000/svg" xmlns:xlink="http://www.w3.org/1999/xlink" x="0px" y="0px"
	 width="512px" height="512px" viewBox="0 0 512 512" style="enable-background:new 0 0 512 512;" xml:space="preserve">
<path style="opacity:1;fill:#ffffff;fill-opacity:1" d="M393.366,118.634c-47.969-47.967-118.295-55.414-157.078-16.633c-29.379,29.381-32.221,76.861-11.021,119.012
	L82.753,363.526c-3.795,3.795-5.816,9.012-5.57,14.371l-0.004,39.027c0.227,4.928,2.311,9.364,5.57,12.625
	c3.262,3.261,7.699,5.345,12.625,5.571l38.727-0.304c5.359,0.246,10.576-1.775,14.373-5.571l14.52-14.521
	c3.58-3.58,5.592-8.436,5.592-13.5v-19.631h19.631c5.064,0,9.92-2.012,13.5-5.592l17.021-17.021c3.58-3.58,5.588-8.436,5.588-13.498
	v-19.632l19.633-0.001c5.064,0,9.922-2.011,13.5-5.592l33.529-33.526c42.15,21.2,89.629,18.358,119.01-11.022
	C448.78,236.928,441.333,166.603,393.366,118.634z M370.47,198.476c-10.412,10.412-31.602,6.105-47.326-9.62
	c-15.725-15.725-20.035-36.913-9.621-47.325c10.414-10.414,31.604-6.107,47.328,9.617
	C376.573,166.874,380.884,188.063,370.47,198.476z"/>
</svg>
