<svg width="512" height="512" xmlns="http://www.w3.org/2000/svg">
 <g>
  <title>Layer 1</title>
  <path id="svg_1" fill="#ffffff" d="m392,214l-8,0l0,-96c0,-52.934998 -43.065002,-96 -96,-96l-64,0c-52.934998,0 -96,43.065002 -96,96l0,96l-8,0c-13.199997,0 -24,10.800003 -24,24l0,240c0,13.200012 10.800003,24 24,24l272,0c13.200012,0 24,-10.799988 24,-24l0,-240c0,-13.199997 -10.799988,-24 -24,-24zm-104,224l-64,0l13.919998,-69.600006c-8.403992,-5.765991 -13.919998,-15.436981 -13.919998,-26.399994c0,-17.673004 14.326996,-32 32,-32s32,14.326996 32,32c0,10.963013 -5.515991,20.634003 -13.919983,26.399994l13.919983,69.600006zm32,-224l-128,0l0,-96c0,-17.644997 14.355011,-32 32,-32l64,0c17.64502,0 32,14.355003 32,32l0,96z"/>
 </g>
</svg>