<?xml version="1.0" encoding="iso-8859-1"?>
<!-- Generator: Adobe Illustrator 16.0.0, SVG Export Plug-In . SVG Version: 6.00 Build 0)  -->
<!DOCTYPE svg PUBLIC "-//W3C//DTD SVG 1.1//EN" "http://www.w3.org/Graphics/SVG/1.1/DTD/svg11.dtd">
<svg version="1.1" id="Layer_1" xmlns="http://www.w3.org/2000/svg" xmlns:xlink="http://www.w3.org/1999/xlink" x="0px" y="0px"
	 width="512px" height="512px" viewBox="0 0 512 512" style="enable-background:new 0 0 512 512;" xml:space="preserve">
<g>
	<path d="M160.61,344.011h190.78c1.32,0,2.568-0.604,3.388-1.642c0.819-1.035,1.119-2.39,0.814-3.675
		c-0.164-0.684-4.058-16.931-11.439-33.459c-10.446-23.392-22.441-35.251-35.651-35.251c-5.137,0-10.315,1.848-15.389,5.495
		c-0.084,0.06-0.166,0.122-0.245,0.188c-2.95,2.459-5.786,5.423-8.789,8.561c-7.803,8.154-15.872,16.586-26.327,16.587
		c-5.336,0.001-10.967-2.132-17.214-6.521c-5.665-3.979-11.953-5.996-18.689-5.996c-16.587,0-32.813,12.416-43.505,22.832
		c-11.056,10.771-19.971,23.133-21.649,26.739c-0.622,1.337-0.519,2.899,0.274,4.143
		C157.761,343.257,159.134,344.011,160.61,344.011z"/>
	<path d="M468.599,376.461H426.46V95.539c0-5.523-4.477-10-10-10H135.539V43.4c0-5.523-4.477-10-10-10h-30c-5.523,0-10,4.477-10,10
		v42.139H43.401c-5.523,0-10,4.477-10,10v30c0,5.523,4.477,10,10,10h42.138v280.922c0,5.523,4.477,10,10,10H376.46V468.6
		c0,5.523,4.477,10,10,10h30c5.523,0,10-4.477,10-10v-42.139h42.139c5.523,0,10-4.477,10-10v-30
		C478.599,380.938,474.122,376.461,468.599,376.461z M376.46,135.539v240.922H135.539V135.539H376.46z"/>
	<circle cx="304.257" cy="209.023" r="23.999"/>
</g>
</svg>
