<?xml version="1.0" encoding="utf-8"?>
<!-- Generator: Adobe Illustrator 16.0.0, SVG Export Plug-In . SVG Version: 6.00 Build 0)  -->
<!DOCTYPE svg PUBLIC "-//W3C//DTD SVG 1.1//EN" "http://www.w3.org/Graphics/SVG/1.1/DTD/svg11.dtd">
<svg version="1.1" id="Artwork" xmlns="http://www.w3.org/2000/svg" xmlns:xlink="http://www.w3.org/1999/xlink" x="0px" y="0px"
	 width="512px" height="512px" viewBox="0 0 512 512" enable-background="new 0 0 512 512" xml:space="preserve">
<path  style="opacity:1;fill:#ffffff;fill-opacity:1" d="M256.165,12C121.532,12,12,121.538,12,256.176s109.532,244.176,244.165,244.176c134.644,0,244.187-109.538,244.187-244.176
	S390.809,12,256.165,12z M65.841,256.176c0-16.269,2.272-31.978,6.131-47.058c3.165,5.052,8.99,11.083,19.401,14.349
	c7.045,24.669,37.278,45.343,37.278,45.343s-21.431,34.681-11.903,56.113c9.526,21.431,37.31,26.194,38.897,37.31
	c0.873,6.099-3.996,29.648-8.57,49.671C98.03,377.438,65.841,320.537,65.841,256.176z M200.958,438.282
	c17.235-21.558,45.911-50.102,53.115-76.844c9.043-33.577,3.165-79.378-17.467-103.191c-20.643-23.813-65.88-13.493-77.785-17.461
	c-9.128-3.044-19.592-11.221-22.935-19.165c3.176-0.857,6.394-1.746,9.875-2.913c69.688-23.334,89.479-108.307,90.34-122.929
	c0.569-9.627-4.047-21.01-7.297-27.74c8.959-1.299,18.045-2.198,27.362-2.198c22.924,0,44.818,4.28,65.187,11.746l-14.259,16.431
	c-3.123,3.596-4.448,8.418-3.597,13.108c0.842,4.684,3.765,8.75,7.961,11.026c4.848,2.639,10.168,4.454,14.837,3.575
	c8.255-1.545,29.192-11.535,42.874-18.355c4.563,3.381,8.959,6.941,13.197,10.705c-12.292,3.848-35.05,13.006-46.05,22.135
	c-3.934,3.265-4.573,9.016-1.61,13.182c3.673,5.163,7.269,12.418,0.328,14.402c-11.115,3.17-3.175,25.396,15.08,26.983
	c15.553,1.352,47.194-29.417,72.433-26.835c9.464,17.014,16.415,35.595,20.306,55.286c-21.883-7.803-60.402-18.602-86.386-9.401
	c-38.099,13.497-65.43,46.832-34.134,81.76c31.294,34.922,53.178,9.521,59.53,47.625c1.198,7.214-2.776,39.934-6.141,64.866
	c-32.704,26.49-74.284,42.432-119.554,42.432C236.963,446.511,218.445,443.593,200.958,438.282z"/>
</svg>
